<mxfile host="app.diagrams.net" modified="2021-12-26T15:01:52.489Z" agent="5.0 (Windows NT 10.0; Win64; x64) AppleWebKit/537.36 (KHTML, like Gecko) Chrome/96.0.4664.93 Safari/537.36 Edg/96.0.1054.53" etag="CL1tnDE6Xyln_-te0F4W" version="16.0.0" type="github">
  <diagram id="qIW5ML4J-Icw4jlsT2Hg" name="Page-1">
    <mxGraphModel dx="7293" dy="4093" grid="0" gridSize="10" guides="1" tooltips="1" connect="1" arrows="1" fold="1" page="0" pageScale="1" pageWidth="827" pageHeight="1169" math="0" shadow="0">
      <root>
        <mxCell id="0" />
        <mxCell id="1" parent="0" />
        <mxCell id="CZmBOX2CGXczauoR-C34-1" value="" style="rounded=1;whiteSpace=wrap;html=1;fontSize=36;strokeWidth=4;fillColor=#f5f5f5;fontColor=#333333;strokeColor=#666666;" parent="1" vertex="1">
          <mxGeometry x="-2110" y="1293" width="1206" height="646" as="geometry" />
        </mxCell>
        <mxCell id="CZmBOX2CGXczauoR-C34-2" value="" style="rounded=1;whiteSpace=wrap;html=1;fontSize=48;dashed=1;strokeWidth=4;fillColor=#dae8fc;strokeColor=#6c8ebf;" parent="1" vertex="1">
          <mxGeometry x="-1684.73" y="1476" width="342.12" height="419" as="geometry" />
        </mxCell>
        <mxCell id="CZmBOX2CGXczauoR-C34-3" value="" style="rounded=1;whiteSpace=wrap;html=1;fontSize=36;fillColor=#f5f5f5;fontColor=#333333;strokeColor=#666666;" parent="1" vertex="1">
          <mxGeometry x="-2140" y="-95" width="1569" height="982" as="geometry" />
        </mxCell>
        <mxCell id="CZmBOX2CGXczauoR-C34-4" value="" style="rounded=1;whiteSpace=wrap;html=1;fontSize=24;arcSize=50;direction=south;fillColor=#fff2cc;strokeColor=#d6b656;" parent="1" vertex="1">
          <mxGeometry x="-2102.25" y="238" width="202.25" height="387" as="geometry" />
        </mxCell>
        <mxCell id="CZmBOX2CGXczauoR-C34-5" value="&lt;font style=&quot;font-size: 36px&quot;&gt;原始向量数据&lt;/font&gt;" style="text;html=1;strokeColor=none;fillColor=none;align=center;verticalAlign=middle;whiteSpace=wrap;rounded=0;fontSize=24;" parent="1" vertex="1">
          <mxGeometry x="-2033.12" y="301.5" width="64" height="260" as="geometry" />
        </mxCell>
        <mxCell id="CZmBOX2CGXczauoR-C34-6" style="edgeStyle=none;rounded=0;orthogonalLoop=1;jettySize=auto;html=1;entryX=0;entryY=0.5;entryDx=0;entryDy=0;fontSize=36;strokeWidth=4;" parent="1" source="CZmBOX2CGXczauoR-C34-7" target="CZmBOX2CGXczauoR-C34-19" edge="1">
          <mxGeometry relative="1" as="geometry" />
        </mxCell>
        <mxCell id="CZmBOX2CGXczauoR-C34-7" value="P1" style="rounded=1;whiteSpace=wrap;html=1;fontSize=36;fillColor=#d5e8d4;strokeColor=#82b366;" parent="1" vertex="1">
          <mxGeometry x="-1737.25" y="158.5" width="177" height="102" as="geometry" />
        </mxCell>
        <mxCell id="CZmBOX2CGXczauoR-C34-8" style="edgeStyle=none;rounded=0;orthogonalLoop=1;jettySize=auto;html=1;entryX=0;entryY=0.5;entryDx=0;entryDy=0;fontSize=36;strokeWidth=4;" parent="1" source="CZmBOX2CGXczauoR-C34-9" target="CZmBOX2CGXczauoR-C34-21" edge="1">
          <mxGeometry relative="1" as="geometry" />
        </mxCell>
        <mxCell id="CZmBOX2CGXczauoR-C34-9" value="P2" style="rounded=1;whiteSpace=wrap;html=1;fontSize=36;fillColor=#d5e8d4;strokeColor=#82b366;" parent="1" vertex="1">
          <mxGeometry x="-1737.25" y="306.5" width="177" height="102" as="geometry" />
        </mxCell>
        <mxCell id="CZmBOX2CGXczauoR-C34-10" style="edgeStyle=none;rounded=0;orthogonalLoop=1;jettySize=auto;html=1;entryX=0;entryY=0.5;entryDx=0;entryDy=0;fontSize=36;strokeWidth=4;" parent="1" source="CZmBOX2CGXczauoR-C34-11" target="CZmBOX2CGXczauoR-C34-23" edge="1">
          <mxGeometry relative="1" as="geometry" />
        </mxCell>
        <mxCell id="CZmBOX2CGXczauoR-C34-11" value="P3" style="rounded=1;whiteSpace=wrap;html=1;fontSize=36;fillColor=#d5e8d4;strokeColor=#82b366;" parent="1" vertex="1">
          <mxGeometry x="-1737.25" y="454.5" width="177" height="102" as="geometry" />
        </mxCell>
        <mxCell id="CZmBOX2CGXczauoR-C34-12" style="edgeStyle=none;rounded=0;orthogonalLoop=1;jettySize=auto;html=1;entryX=0;entryY=0.5;entryDx=0;entryDy=0;fontSize=36;strokeWidth=4;" parent="1" source="CZmBOX2CGXczauoR-C34-13" target="CZmBOX2CGXczauoR-C34-25" edge="1">
          <mxGeometry relative="1" as="geometry" />
        </mxCell>
        <mxCell id="CZmBOX2CGXczauoR-C34-13" value="P4" style="rounded=1;whiteSpace=wrap;html=1;fontSize=36;fillColor=#d5e8d4;strokeColor=#82b366;" parent="1" vertex="1">
          <mxGeometry x="-1737.25" y="602.5" width="177" height="102" as="geometry" />
        </mxCell>
        <mxCell id="CZmBOX2CGXczauoR-C34-14" value="" style="shape=singleArrow;whiteSpace=wrap;html=1;fontSize=36;arrowWidth=0.4855979636863414;arrowSize=0.4997117959979471;" parent="1" vertex="1">
          <mxGeometry x="-1874.5" y="382.5" width="121" height="98" as="geometry" />
        </mxCell>
        <mxCell id="CZmBOX2CGXczauoR-C34-15" value="&lt;font style=&quot;font-size: 36px&quot;&gt;相似性分区层：进行数据的聚类分区&lt;/font&gt;" style="text;html=1;strokeColor=none;fillColor=none;align=center;verticalAlign=middle;whiteSpace=wrap;rounded=0;fontSize=36;" parent="1" vertex="1">
          <mxGeometry x="-1934.1999999999998" y="-33.5" width="266.25" height="120" as="geometry" />
        </mxCell>
        <mxCell id="CZmBOX2CGXczauoR-C34-16" value="" style="endArrow=none;html=1;rounded=0;fontSize=36;dashed=1;strokeWidth=4;" parent="1" edge="1">
          <mxGeometry width="50" height="50" relative="1" as="geometry">
            <mxPoint x="-1490.0500000000002" y="773.5" as="sourcePoint" />
            <mxPoint x="-1490.0500000000002" y="-5.5" as="targetPoint" />
          </mxGeometry>
        </mxCell>
        <mxCell id="CZmBOX2CGXczauoR-C34-17" value="" style="endArrow=none;html=1;rounded=0;fontSize=36;dashed=1;strokeWidth=4;" parent="1" edge="1">
          <mxGeometry width="50" height="50" relative="1" as="geometry">
            <mxPoint x="-1095.9400000000005" y="778.5" as="sourcePoint" />
            <mxPoint x="-1095.9400000000005" y="-0.5" as="targetPoint" />
          </mxGeometry>
        </mxCell>
        <mxCell id="CZmBOX2CGXczauoR-C34-18" style="edgeStyle=none;rounded=0;orthogonalLoop=1;jettySize=auto;html=1;entryX=0;entryY=0.5;entryDx=0;entryDy=0;fontSize=36;strokeWidth=4;" parent="1" target="CZmBOX2CGXczauoR-C34-28" edge="1">
          <mxGeometry relative="1" as="geometry">
            <mxPoint x="-1204.25" y="194.5" as="sourcePoint" />
          </mxGeometry>
        </mxCell>
        <mxCell id="CZmBOX2CGXczauoR-C34-19" value="局部索引1" style="rounded=1;whiteSpace=wrap;html=1;fontSize=36;fillColor=#dae8fc;strokeColor=#6c8ebf;" parent="1" vertex="1">
          <mxGeometry x="-1376.6299999999999" y="158.5" width="177" height="102" as="geometry" />
        </mxCell>
        <mxCell id="CZmBOX2CGXczauoR-C34-20" style="edgeStyle=none;rounded=0;orthogonalLoop=1;jettySize=auto;html=1;entryX=0.003;entryY=0.471;entryDx=0;entryDy=0;entryPerimeter=0;fontSize=36;strokeWidth=4;" parent="1" source="CZmBOX2CGXczauoR-C34-21" target="CZmBOX2CGXczauoR-C34-28" edge="1">
          <mxGeometry relative="1" as="geometry" />
        </mxCell>
        <mxCell id="CZmBOX2CGXczauoR-C34-21" value="局部索引2" style="rounded=1;whiteSpace=wrap;html=1;fontSize=36;fillColor=#dae8fc;strokeColor=#6c8ebf;" parent="1" vertex="1">
          <mxGeometry x="-1378.12" y="304.5" width="177" height="102" as="geometry" />
        </mxCell>
        <mxCell id="CZmBOX2CGXczauoR-C34-22" style="edgeStyle=none;rounded=0;orthogonalLoop=1;jettySize=auto;html=1;entryX=0;entryY=0.5;entryDx=0;entryDy=0;fontSize=36;strokeWidth=4;" parent="1" source="CZmBOX2CGXczauoR-C34-23" target="CZmBOX2CGXczauoR-C34-28" edge="1">
          <mxGeometry relative="1" as="geometry" />
        </mxCell>
        <mxCell id="CZmBOX2CGXczauoR-C34-23" value="局部索引3" style="rounded=1;whiteSpace=wrap;html=1;fontSize=36;fillColor=#dae8fc;strokeColor=#6c8ebf;" parent="1" vertex="1">
          <mxGeometry x="-1375" y="454.5" width="177" height="102" as="geometry" />
        </mxCell>
        <mxCell id="CZmBOX2CGXczauoR-C34-24" style="edgeStyle=none;rounded=0;orthogonalLoop=1;jettySize=auto;html=1;entryX=0;entryY=0.5;entryDx=0;entryDy=0;fontSize=36;strokeWidth=4;" parent="1" source="CZmBOX2CGXczauoR-C34-25" target="CZmBOX2CGXczauoR-C34-28" edge="1">
          <mxGeometry relative="1" as="geometry" />
        </mxCell>
        <mxCell id="CZmBOX2CGXczauoR-C34-25" value="局部索引4" style="rounded=1;whiteSpace=wrap;html=1;fontSize=36;fillColor=#dae8fc;strokeColor=#6c8ebf;" parent="1" vertex="1">
          <mxGeometry x="-1375" y="604.5" width="177" height="102" as="geometry" />
        </mxCell>
        <mxCell id="CZmBOX2CGXczauoR-C34-26" value="局部索引层：从节点进行局部索引的构建" style="text;html=1;strokeColor=none;fillColor=none;align=center;verticalAlign=middle;whiteSpace=wrap;rounded=0;fontSize=36;" parent="1" vertex="1">
          <mxGeometry x="-1415.49" y="-45" width="224.74" height="143" as="geometry" />
        </mxCell>
        <mxCell id="CZmBOX2CGXczauoR-C34-27" value="全局索引层：主节点进行全局索引的构建" style="text;html=1;strokeColor=none;fillColor=none;align=center;verticalAlign=middle;whiteSpace=wrap;rounded=0;fontSize=36;" parent="1" vertex="1">
          <mxGeometry x="-940.1199999999999" y="-41.5" width="224.74" height="143" as="geometry" />
        </mxCell>
        <mxCell id="CZmBOX2CGXczauoR-C34-28" value="全局索引" style="rounded=1;whiteSpace=wrap;html=1;fontSize=36;fillColor=#e1d5e7;strokeColor=#9673a6;" parent="1" vertex="1">
          <mxGeometry x="-979.72" y="325" width="284.72" height="213" as="geometry" />
        </mxCell>
        <mxCell id="CZmBOX2CGXczauoR-C34-29" value="索引管理：&lt;br&gt;构建、搜索、持久化、插入&lt;br&gt;" style="text;html=1;strokeColor=none;fillColor=none;align=center;verticalAlign=middle;whiteSpace=wrap;rounded=0;fontSize=36;" parent="1" vertex="1">
          <mxGeometry x="-2286.75" y="979" width="502" height="280" as="geometry" />
        </mxCell>
        <mxCell id="CZmBOX2CGXczauoR-C34-30" style="edgeStyle=none;rounded=0;orthogonalLoop=1;jettySize=auto;html=1;fontSize=36;strokeWidth=3;" parent="1" edge="1">
          <mxGeometry relative="1" as="geometry">
            <mxPoint x="-1347" y="1756" as="sourcePoint" />
            <mxPoint x="-1115" y="1756" as="targetPoint" />
          </mxGeometry>
        </mxCell>
        <mxCell id="CZmBOX2CGXczauoR-C34-31" value="" style="ellipse;shape=cloud;whiteSpace=wrap;html=1;fontSize=36;fillColor=#e1d5e7;strokeColor=#9673a6;" parent="1" vertex="1">
          <mxGeometry x="-1694.73" y="1647" width="337.45" height="208" as="geometry" />
        </mxCell>
        <mxCell id="CZmBOX2CGXczauoR-C34-32" value="" style="rounded=1;whiteSpace=wrap;html=1;fontSize=24;arcSize=50;direction=south;fillColor=#fff2cc;strokeColor=#d6b656;" parent="1" vertex="1">
          <mxGeometry x="-2094.3399999999997" y="1520.5" width="202.25" height="387" as="geometry" />
        </mxCell>
        <mxCell id="CZmBOX2CGXczauoR-C34-33" value="&lt;font style=&quot;font-size: 36px&quot;&gt;原始向量数据&lt;/font&gt;" style="text;html=1;strokeColor=none;fillColor=none;align=center;verticalAlign=middle;whiteSpace=wrap;rounded=0;fontSize=24;" parent="1" vertex="1">
          <mxGeometry x="-2025.2200000000003" y="1590.5" width="64" height="260" as="geometry" />
        </mxCell>
        <mxCell id="CZmBOX2CGXczauoR-C34-34" style="rounded=0;orthogonalLoop=1;jettySize=auto;html=1;fontSize=36;strokeWidth=3;exitX=0;exitY=0.5;exitDx=0;exitDy=0;exitPerimeter=0;" parent="1" source="CZmBOX2CGXczauoR-C34-35" edge="1">
          <mxGeometry relative="1" as="geometry">
            <mxPoint x="-1348" y="1685" as="targetPoint" />
          </mxGeometry>
        </mxCell>
        <mxCell id="CZmBOX2CGXczauoR-C34-35" value="" style="shape=cylinder3;whiteSpace=wrap;html=1;boundedLbl=1;backgroundOutline=1;size=15;fontSize=36;fillColor=#ffe6cc;strokeColor=#d79b00;" parent="1" vertex="1">
          <mxGeometry x="-1121.23" y="1541" width="184" height="288.5" as="geometry" />
        </mxCell>
        <mxCell id="CZmBOX2CGXczauoR-C34-36" value="持久化" style="text;html=1;strokeColor=#82b366;fillColor=#d5e8d4;align=center;verticalAlign=middle;whiteSpace=wrap;rounded=0;fontSize=36;" parent="1" vertex="1">
          <mxGeometry x="-1309.9899999999996" y="1763" width="142.99" height="43" as="geometry" />
        </mxCell>
        <mxCell id="CZmBOX2CGXczauoR-C34-37" value="载入索引" style="text;html=1;strokeColor=#82b366;fillColor=#d5e8d4;align=center;verticalAlign=middle;whiteSpace=wrap;rounded=0;fontSize=36;" parent="1" vertex="1">
          <mxGeometry x="-1308.1200000000001" y="1609" width="148" height="72" as="geometry" />
        </mxCell>
        <mxCell id="CZmBOX2CGXczauoR-C34-38" value="插入数据" style="text;html=1;strokeColor=#82b366;fillColor=#d5e8d4;align=center;verticalAlign=middle;whiteSpace=wrap;rounded=0;fontSize=36;" parent="1" vertex="1">
          <mxGeometry x="-1865.86" y="1627" width="159" height="79.5" as="geometry" />
        </mxCell>
        <mxCell id="CZmBOX2CGXczauoR-C34-39" value="&lt;font style=&quot;font-size: 48px&quot;&gt;索引&lt;/font&gt;" style="text;html=1;strokeColor=none;fillColor=none;align=center;verticalAlign=middle;whiteSpace=wrap;rounded=0;fontSize=36;" parent="1" vertex="1">
          <mxGeometry x="-1593.74" y="1736" width="148" height="30" as="geometry" />
        </mxCell>
        <mxCell id="CZmBOX2CGXczauoR-C34-40" value="&lt;font style=&quot;font-size: 48px&quot;&gt;内存&lt;/font&gt;" style="text;html=1;strokeColor=none;fillColor=none;align=center;verticalAlign=middle;whiteSpace=wrap;rounded=0;dashed=1;fontSize=48;" parent="1" vertex="1">
          <mxGeometry x="-1587.99" y="1457" width="153" height="140" as="geometry" />
        </mxCell>
        <mxCell id="CZmBOX2CGXczauoR-C34-41" value="" style="endArrow=classic;html=1;rounded=0;fontSize=36;strokeWidth=3;" parent="1" edge="1">
          <mxGeometry width="50" height="50" relative="1" as="geometry">
            <mxPoint x="-1887" y="1724.000000000001" as="sourcePoint" />
            <mxPoint x="-1683" y="1724.000000000001" as="targetPoint" />
          </mxGeometry>
        </mxCell>
        <mxCell id="CZmBOX2CGXczauoR-C34-42" value="非易失性存储" style="text;html=1;strokeColor=none;fillColor=none;align=center;verticalAlign=middle;whiteSpace=wrap;rounded=0;fontSize=36;" parent="1" vertex="1">
          <mxGeometry x="-1098" y="1702.75" width="154.23" height="43" as="geometry" />
        </mxCell>
        <mxCell id="CZmBOX2CGXczauoR-C34-43" value="创建索引" style="text;html=1;strokeColor=#82b366;fillColor=#d5e8d4;align=center;verticalAlign=middle;whiteSpace=wrap;rounded=0;fontSize=36;" parent="1" vertex="1">
          <mxGeometry x="-1656.38" y="1559" width="89" height="79" as="geometry" />
        </mxCell>
        <mxCell id="CZmBOX2CGXczauoR-C34-44" value="索引查询" style="text;html=1;strokeColor=#82b366;fillColor=#d5e8d4;align=center;verticalAlign=middle;whiteSpace=wrap;rounded=0;fontSize=36;" parent="1" vertex="1">
          <mxGeometry x="-1470.23" y="1556" width="99.23" height="91" as="geometry" />
        </mxCell>
        <mxCell id="CZmBOX2CGXczauoR-C34-45" value="&lt;font style=&quot;font-size: 48px&quot;&gt;索引管理主要操作&lt;/font&gt;" style="text;html=1;strokeColor=none;fillColor=none;align=center;verticalAlign=middle;whiteSpace=wrap;rounded=1;dashed=1;fontSize=48;" parent="1" vertex="1">
          <mxGeometry x="-1700.26" y="1295" width="419" height="140" as="geometry" />
        </mxCell>
        <mxCell id="CZmBOX2CGXczauoR-C34-46" value="&lt;font style=&quot;font-size: 48px&quot;&gt;从节点&lt;/font&gt;" style="text;html=1;strokeColor=none;fillColor=none;align=center;verticalAlign=middle;whiteSpace=wrap;rounded=0;" parent="1" vertex="1">
          <mxGeometry x="-1380.82" y="805" width="185.38" height="52" as="geometry" />
        </mxCell>
        <mxCell id="CZmBOX2CGXczauoR-C34-47" value="&lt;font style=&quot;font-size: 48px&quot;&gt;主节点&lt;/font&gt;" style="text;html=1;strokeColor=none;fillColor=none;align=center;verticalAlign=middle;whiteSpace=wrap;rounded=0;" parent="1" vertex="1">
          <mxGeometry x="-930.05" y="816" width="185.38" height="30" as="geometry" />
        </mxCell>
        <mxCell id="2JOY8OT8ZH7SU-0Lw7vG-3" value="" style="rounded=1;whiteSpace=wrap;html=1;fillColor=#d5e8d4;strokeColor=#82b366;" vertex="1" parent="1">
          <mxGeometry x="84" y="-2" width="214" height="98" as="geometry" />
        </mxCell>
        <mxCell id="2JOY8OT8ZH7SU-0Lw7vG-4" value="" style="rounded=1;whiteSpace=wrap;html=1;fillColor=#d5e8d4;strokeColor=#82b366;" vertex="1" parent="1">
          <mxGeometry x="334" y="-2" width="214" height="98" as="geometry" />
        </mxCell>
        <mxCell id="2JOY8OT8ZH7SU-0Lw7vG-14" value="&lt;font style=&quot;font-size: 48px&quot;&gt;P2&lt;/font&gt;" style="text;html=1;strokeColor=#82b366;fillColor=#d5e8d4;align=center;verticalAlign=middle;whiteSpace=wrap;rounded=0;" vertex="1" parent="1">
          <mxGeometry x="411" y="32" width="60" height="30" as="geometry" />
        </mxCell>
        <mxCell id="2JOY8OT8ZH7SU-0Lw7vG-15" value="&lt;font style=&quot;font-size: 48px&quot;&gt;P1&lt;/font&gt;" style="text;html=1;strokeColor=#82b366;fillColor=#d5e8d4;align=center;verticalAlign=middle;whiteSpace=wrap;rounded=0;" vertex="1" parent="1">
          <mxGeometry x="161" y="32" width="60" height="30" as="geometry" />
        </mxCell>
        <mxCell id="2JOY8OT8ZH7SU-0Lw7vG-20" value="" style="rounded=1;whiteSpace=wrap;html=1;fillColor=#d5e8d4;strokeColor=#82b366;" vertex="1" parent="1">
          <mxGeometry x="585" y="-2" width="214" height="98" as="geometry" />
        </mxCell>
        <mxCell id="2JOY8OT8ZH7SU-0Lw7vG-21" value="" style="rounded=1;whiteSpace=wrap;html=1;fillColor=#d5e8d4;strokeColor=#82b366;" vertex="1" parent="1">
          <mxGeometry x="835" y="-2" width="214" height="98" as="geometry" />
        </mxCell>
        <mxCell id="2JOY8OT8ZH7SU-0Lw7vG-22" value="&lt;font style=&quot;font-size: 48px&quot;&gt;P4&lt;/font&gt;" style="text;html=1;strokeColor=#82b366;fillColor=#d5e8d4;align=center;verticalAlign=middle;whiteSpace=wrap;rounded=0;" vertex="1" parent="1">
          <mxGeometry x="913" y="32" width="60" height="30" as="geometry" />
        </mxCell>
        <mxCell id="2JOY8OT8ZH7SU-0Lw7vG-23" value="&lt;font style=&quot;font-size: 48px&quot;&gt;P3&lt;/font&gt;" style="text;html=1;strokeColor=#82b366;fillColor=#d5e8d4;align=center;verticalAlign=middle;whiteSpace=wrap;rounded=0;" vertex="1" parent="1">
          <mxGeometry x="662" y="32" width="60" height="30" as="geometry" />
        </mxCell>
        <mxCell id="2JOY8OT8ZH7SU-0Lw7vG-24" value="" style="rounded=1;whiteSpace=wrap;html=1;fillColor=#d5e8d4;strokeColor=#82b366;" vertex="1" parent="1">
          <mxGeometry x="1081" y="-2" width="214" height="98" as="geometry" />
        </mxCell>
        <mxCell id="2JOY8OT8ZH7SU-0Lw7vG-25" value="" style="rounded=1;whiteSpace=wrap;html=1;fillColor=#d5e8d4;strokeColor=#82b366;" vertex="1" parent="1">
          <mxGeometry x="1331" y="-2" width="214" height="98" as="geometry" />
        </mxCell>
        <mxCell id="2JOY8OT8ZH7SU-0Lw7vG-26" value="&lt;font style=&quot;font-size: 48px&quot;&gt;P6&lt;/font&gt;" style="text;html=1;strokeColor=#82b366;fillColor=#d5e8d4;align=center;verticalAlign=middle;whiteSpace=wrap;rounded=0;" vertex="1" parent="1">
          <mxGeometry x="1408" y="32" width="60" height="30" as="geometry" />
        </mxCell>
        <mxCell id="2JOY8OT8ZH7SU-0Lw7vG-27" value="&lt;font style=&quot;font-size: 48px&quot;&gt;P5&lt;/font&gt;" style="text;html=1;strokeColor=#82b366;fillColor=#d5e8d4;align=center;verticalAlign=middle;whiteSpace=wrap;rounded=0;" vertex="1" parent="1">
          <mxGeometry x="1159" y="32" width="60" height="30" as="geometry" />
        </mxCell>
        <mxCell id="2JOY8OT8ZH7SU-0Lw7vG-28" value="" style="rounded=1;whiteSpace=wrap;html=1;fillColor=#d5e8d4;strokeColor=#82b366;" vertex="1" parent="1">
          <mxGeometry x="1582" y="-2" width="214" height="98" as="geometry" />
        </mxCell>
        <mxCell id="2JOY8OT8ZH7SU-0Lw7vG-29" value="" style="rounded=1;whiteSpace=wrap;html=1;fillColor=#d5e8d4;strokeColor=#82b366;" vertex="1" parent="1">
          <mxGeometry x="1832" y="-2" width="214" height="98" as="geometry" />
        </mxCell>
        <mxCell id="2JOY8OT8ZH7SU-0Lw7vG-30" value="&lt;font style=&quot;font-size: 48px&quot;&gt;P8&lt;/font&gt;" style="text;html=1;strokeColor=#82b366;fillColor=#d5e8d4;align=center;verticalAlign=middle;whiteSpace=wrap;rounded=0;" vertex="1" parent="1">
          <mxGeometry x="1910" y="32" width="60" height="30" as="geometry" />
        </mxCell>
        <mxCell id="2JOY8OT8ZH7SU-0Lw7vG-31" value="&lt;font style=&quot;font-size: 48px&quot;&gt;P7&lt;/font&gt;" style="text;html=1;strokeColor=#82b366;fillColor=#d5e8d4;align=center;verticalAlign=middle;whiteSpace=wrap;rounded=0;" vertex="1" parent="1">
          <mxGeometry x="1659" y="32" width="60" height="30" as="geometry" />
        </mxCell>
        <mxCell id="2JOY8OT8ZH7SU-0Lw7vG-32" value="" style="shape=singleArrow;direction=south;whiteSpace=wrap;html=1;fontSize=48;arrowWidth=0.48614614091207103;arrowSize=0.3160966922075326;fillColor=#008a00;fontColor=#ffffff;strokeColor=#005700;" vertex="1" parent="1">
          <mxGeometry x="1011" y="152" width="109" height="260" as="geometry" />
        </mxCell>
        <mxCell id="2JOY8OT8ZH7SU-0Lw7vG-33" value="" style="ellipse;shape=cloud;whiteSpace=wrap;html=1;fontSize=48;fillColor=#f0a30a;fontColor=#000000;strokeColor=#BD7000;" vertex="1" parent="1">
          <mxGeometry x="772" y="174" width="191" height="148" as="geometry" />
        </mxCell>
        <mxCell id="2JOY8OT8ZH7SU-0Lw7vG-34" value="&lt;b&gt;&lt;font style=&quot;font-size: 72px&quot;&gt;全局索引&lt;/font&gt;&lt;/b&gt;" style="text;html=1;strokeColor=none;fillColor=none;align=center;verticalAlign=middle;whiteSpace=wrap;rounded=0;fontSize=48;" vertex="1" parent="1">
          <mxGeometry x="463" y="233" width="305" height="30" as="geometry" />
        </mxCell>
        <mxCell id="2JOY8OT8ZH7SU-0Lw7vG-35" value="根据全局索引分区减枝，剔除不相关分区" style="text;html=1;strokeColor=none;fillColor=none;align=center;verticalAlign=middle;whiteSpace=wrap;rounded=0;fontSize=72;" vertex="1" parent="1">
          <mxGeometry x="1285" y="225" width="686" height="30" as="geometry" />
        </mxCell>
        <mxCell id="2JOY8OT8ZH7SU-0Lw7vG-36" value="" style="rounded=1;whiteSpace=wrap;html=1;fillColor=#bac8d3;strokeColor=#23445d;" vertex="1" parent="1">
          <mxGeometry x="87.86000000000001" y="460" width="214" height="98" as="geometry" />
        </mxCell>
        <mxCell id="2JOY8OT8ZH7SU-0Lw7vG-37" value="" style="rounded=1;whiteSpace=wrap;html=1;fillColor=#e51400;strokeColor=#B20000;fontColor=#ffffff;" vertex="1" parent="1">
          <mxGeometry x="337.86" y="460" width="214" height="98" as="geometry" />
        </mxCell>
        <mxCell id="2JOY8OT8ZH7SU-0Lw7vG-38" value="&lt;font style=&quot;font-size: 48px&quot;&gt;P2&lt;/font&gt;" style="text;html=1;strokeColor=#B20000;fillColor=#e51400;align=center;verticalAlign=middle;whiteSpace=wrap;rounded=0;fontColor=#ffffff;" vertex="1" parent="1">
          <mxGeometry x="414.86" y="494" width="60" height="30" as="geometry" />
        </mxCell>
        <mxCell id="2JOY8OT8ZH7SU-0Lw7vG-39" value="&lt;font style=&quot;font-size: 48px&quot;&gt;P1&lt;/font&gt;" style="text;html=1;strokeColor=#23445d;fillColor=#bac8d3;align=center;verticalAlign=middle;whiteSpace=wrap;rounded=0;" vertex="1" parent="1">
          <mxGeometry x="164.86" y="494" width="60" height="30" as="geometry" />
        </mxCell>
        <mxCell id="2JOY8OT8ZH7SU-0Lw7vG-40" value="" style="rounded=1;whiteSpace=wrap;html=1;fillColor=#bac8d3;strokeColor=#23445d;" vertex="1" parent="1">
          <mxGeometry x="588.86" y="460" width="214" height="98" as="geometry" />
        </mxCell>
        <mxCell id="2JOY8OT8ZH7SU-0Lw7vG-41" value="" style="rounded=1;whiteSpace=wrap;html=1;fillColor=#e51400;strokeColor=#B20000;fontColor=#ffffff;" vertex="1" parent="1">
          <mxGeometry x="838.86" y="460" width="214" height="98" as="geometry" />
        </mxCell>
        <mxCell id="2JOY8OT8ZH7SU-0Lw7vG-42" value="&lt;font style=&quot;font-size: 48px&quot;&gt;P4&lt;/font&gt;" style="text;html=1;strokeColor=#B20000;fillColor=#e51400;align=center;verticalAlign=middle;whiteSpace=wrap;rounded=0;fontColor=#ffffff;" vertex="1" parent="1">
          <mxGeometry x="916.86" y="494" width="60" height="30" as="geometry" />
        </mxCell>
        <mxCell id="2JOY8OT8ZH7SU-0Lw7vG-43" value="&lt;font style=&quot;font-size: 48px&quot;&gt;P3&lt;/font&gt;" style="text;html=1;strokeColor=#23445d;fillColor=#bac8d3;align=center;verticalAlign=middle;whiteSpace=wrap;rounded=0;" vertex="1" parent="1">
          <mxGeometry x="665.86" y="494" width="60" height="30" as="geometry" />
        </mxCell>
        <mxCell id="2JOY8OT8ZH7SU-0Lw7vG-44" value="" style="rounded=1;whiteSpace=wrap;html=1;fillColor=#bac8d3;strokeColor=#23445d;" vertex="1" parent="1">
          <mxGeometry x="1084.8600000000001" y="460" width="214" height="98" as="geometry" />
        </mxCell>
        <mxCell id="2JOY8OT8ZH7SU-0Lw7vG-45" value="" style="rounded=1;whiteSpace=wrap;html=1;fillColor=#bac8d3;strokeColor=#23445d;" vertex="1" parent="1">
          <mxGeometry x="1334.8600000000001" y="460" width="214" height="98" as="geometry" />
        </mxCell>
        <mxCell id="2JOY8OT8ZH7SU-0Lw7vG-46" value="&lt;font style=&quot;font-size: 48px&quot;&gt;P6&lt;/font&gt;" style="text;html=1;strokeColor=#23445d;fillColor=#bac8d3;align=center;verticalAlign=middle;whiteSpace=wrap;rounded=0;" vertex="1" parent="1">
          <mxGeometry x="1411.8600000000001" y="494" width="60" height="30" as="geometry" />
        </mxCell>
        <mxCell id="2JOY8OT8ZH7SU-0Lw7vG-47" value="&lt;font style=&quot;font-size: 48px&quot;&gt;P5&lt;/font&gt;" style="text;html=1;strokeColor=#23445d;fillColor=#bac8d3;align=center;verticalAlign=middle;whiteSpace=wrap;rounded=0;" vertex="1" parent="1">
          <mxGeometry x="1162.8600000000001" y="494" width="60" height="30" as="geometry" />
        </mxCell>
        <mxCell id="2JOY8OT8ZH7SU-0Lw7vG-48" value="" style="rounded=1;whiteSpace=wrap;html=1;fillColor=#e51400;strokeColor=#B20000;fontColor=#ffffff;" vertex="1" parent="1">
          <mxGeometry x="1585.86" y="460" width="214" height="98" as="geometry" />
        </mxCell>
        <mxCell id="2JOY8OT8ZH7SU-0Lw7vG-49" value="" style="rounded=1;whiteSpace=wrap;html=1;fillColor=#bac8d3;strokeColor=#23445d;" vertex="1" parent="1">
          <mxGeometry x="1835.86" y="460" width="214" height="98" as="geometry" />
        </mxCell>
        <mxCell id="2JOY8OT8ZH7SU-0Lw7vG-50" value="&lt;font style=&quot;font-size: 48px&quot;&gt;P8&lt;/font&gt;" style="text;html=1;strokeColor=#23445d;fillColor=#bac8d3;align=center;verticalAlign=middle;whiteSpace=wrap;rounded=0;" vertex="1" parent="1">
          <mxGeometry x="1913.86" y="494" width="60" height="30" as="geometry" />
        </mxCell>
        <mxCell id="2JOY8OT8ZH7SU-0Lw7vG-51" value="&lt;font style=&quot;font-size: 48px&quot;&gt;P7&lt;/font&gt;" style="text;html=1;strokeColor=#B20000;fillColor=#e51400;align=center;verticalAlign=middle;whiteSpace=wrap;rounded=0;fontColor=#ffffff;" vertex="1" parent="1">
          <mxGeometry x="1662.86" y="494" width="60" height="30" as="geometry" />
        </mxCell>
        <mxCell id="2JOY8OT8ZH7SU-0Lw7vG-52" value="" style="shape=singleArrow;direction=south;whiteSpace=wrap;html=1;fontSize=48;arrowWidth=0.48614614091207103;arrowSize=0.3160966922075326;fillColor=#008a00;fontColor=#ffffff;strokeColor=#005700;" vertex="1" parent="1">
          <mxGeometry x="390.36" y="598" width="109" height="196" as="geometry" />
        </mxCell>
        <mxCell id="2JOY8OT8ZH7SU-0Lw7vG-53" value="" style="shape=singleArrow;direction=south;whiteSpace=wrap;html=1;fontSize=48;arrowWidth=0.48614614091207103;arrowSize=0.3160966922075326;fillColor=#008a00;fontColor=#ffffff;strokeColor=#005700;" vertex="1" parent="1">
          <mxGeometry x="892.36" y="598" width="109" height="196" as="geometry" />
        </mxCell>
        <mxCell id="2JOY8OT8ZH7SU-0Lw7vG-54" value="" style="shape=singleArrow;direction=south;whiteSpace=wrap;html=1;fontSize=48;arrowWidth=0.48614614091207103;arrowSize=0.3160966922075326;fillColor=#008a00;fontColor=#ffffff;strokeColor=#005700;" vertex="1" parent="1">
          <mxGeometry x="1638.3600000000001" y="598" width="109" height="196" as="geometry" />
        </mxCell>
        <mxCell id="2JOY8OT8ZH7SU-0Lw7vG-55" value="" style="ellipse;shape=cloud;whiteSpace=wrap;html=1;fontSize=72;fillColor=#f0a30a;fontColor=#000000;strokeColor=#BD7000;" vertex="1" parent="1">
          <mxGeometry x="306" y="822" width="260" height="174" as="geometry" />
        </mxCell>
        <mxCell id="2JOY8OT8ZH7SU-0Lw7vG-56" value="" style="ellipse;shape=cloud;whiteSpace=wrap;html=1;fontSize=72;fillColor=#f0a30a;fontColor=#000000;strokeColor=#BD7000;" vertex="1" parent="1">
          <mxGeometry x="832" y="822" width="260" height="174" as="geometry" />
        </mxCell>
        <mxCell id="2JOY8OT8ZH7SU-0Lw7vG-57" value="" style="ellipse;shape=cloud;whiteSpace=wrap;html=1;fontSize=72;fillColor=#f0a30a;fontColor=#000000;strokeColor=#BD7000;" vertex="1" parent="1">
          <mxGeometry x="1559" y="827" width="260" height="174" as="geometry" />
        </mxCell>
        <mxCell id="2JOY8OT8ZH7SU-0Lw7vG-58" value="&lt;b&gt;&lt;font style=&quot;font-size: 72px&quot;&gt;本地索引&lt;/font&gt;&lt;/b&gt;" style="text;html=1;strokeColor=none;fillColor=none;align=center;verticalAlign=middle;whiteSpace=wrap;rounded=0;fontSize=48;" vertex="1" parent="1">
          <mxGeometry x="551.86" y="844" width="305" height="30" as="geometry" />
        </mxCell>
        <mxCell id="2JOY8OT8ZH7SU-0Lw7vG-59" value="&lt;span style=&quot;font-size: 72px&quot;&gt;&lt;b&gt;主节点&lt;/b&gt;&lt;/span&gt;" style="text;html=1;strokeColor=none;fillColor=none;align=center;verticalAlign=middle;whiteSpace=wrap;rounded=0;fontSize=48;" vertex="1" parent="1">
          <mxGeometry x="25" y="233" width="305" height="30" as="geometry" />
        </mxCell>
        <mxCell id="2JOY8OT8ZH7SU-0Lw7vG-60" value="&lt;span style=&quot;font-size: 72px&quot;&gt;&lt;b&gt;从节点&lt;/b&gt;&lt;/span&gt;" style="text;html=1;strokeColor=none;fillColor=none;align=center;verticalAlign=middle;whiteSpace=wrap;rounded=0;fontSize=48;" vertex="1" parent="1">
          <mxGeometry x="25" y="899" width="305" height="30" as="geometry" />
        </mxCell>
        <mxCell id="2JOY8OT8ZH7SU-0Lw7vG-61" value="本地索引加速分区查询处理" style="text;html=1;strokeColor=none;fillColor=none;align=center;verticalAlign=middle;whiteSpace=wrap;rounded=0;fontSize=72;" vertex="1" parent="1">
          <mxGeometry x="1018" y="727" width="570" height="30" as="geometry" />
        </mxCell>
      </root>
    </mxGraphModel>
  </diagram>
</mxfile>
